<?xml version="1.0" encoding="UTF-8" standalone="no"?>
<svg
   viewBox="0 0 100 100"
   x="0px"
   y="0px"
   version="1.1"
   id="svg8"
   sodipodi:docname="bullet.svg"
   width="100"
   height="100"
   inkscape:version="1.2.2 (732a01da63, 2022-12-09)"
   xml:space="preserve"
   xmlns:inkscape="http://www.inkscape.org/namespaces/inkscape"
   xmlns:sodipodi="http://sodipodi.sourceforge.net/DTD/sodipodi-0.dtd"
   xmlns="http://www.w3.org/2000/svg"
   xmlns:svg="http://www.w3.org/2000/svg"><defs
     id="defs12" /><sodipodi:namedview
     id="namedview10"
     pagecolor="#ffffff"
     bordercolor="#000000"
     borderopacity="0.25"
     inkscape:showpageshadow="2"
     inkscape:pageopacity="0.0"
     inkscape:pagecheckerboard="0"
     inkscape:deskcolor="#d1d1d1"
     showgrid="false"
     inkscape:zoom="2.6700352"
     inkscape:cx="23.595195"
     inkscape:cy="59.73704"
     inkscape:window-width="1280"
     inkscape:window-height="730"
     inkscape:window-x="-6"
     inkscape:window-y="-6"
     inkscape:window-maximized="1"
     inkscape:current-layer="svg8" /><path
     d="m 31.162766,73.82434 -3.848383,-7.586056 -14.608959,0.801893 1.650549,3.301471 z M 26.826474,46.10146 4.9751141,48.637019 v 2.727532 L 26.826474,53.90011 v -3.899325 z m 4.336292,-19.924229 -3.848383,7.586056 -14.608959,-0.801892 1.650549,-3.301471 z m 15.001682,-2.862898 c -5.409475,-0.01942 -8.844225,0.70843 -8.844225,0.70843 -3.049868,0.526177 -5.948788,12.820405 -5.948788,25.97868 0,13.157838 2.89892,25.452132 5.948788,25.978682 0,0 35.168666,7.45354 57.68219,-25.978682 C 79.5248,27.017518 58.065075,23.357993 46.163577,23.314114 Z m -0.448049,5.46318 c 8.050501,0.04946 26.037795,2.159953 41.130306,18.24914 C 67.305072,32.138879 40.318904,34.483564 40.318904,34.483564 c 0,0 1.017879,-5.314649 1.133997,-5.509692 0,0 1.57941,-0.21277 4.262888,-0.196282 z"
     stroke="#000000"
     stroke-width="0.218605px"
     id="path124" /></svg>
