<?xml version="1.0" encoding="UTF-8" standalone="no"?>
<svg
   viewBox="0 0 100 100"
   x="0px"
   y="0px"
   version="1.1"
   id="svg8"
   sodipodi:docname="hourglass.svg"
   width="100"
   height="100"
   inkscape:version="1.2.2 (732a01da63, 2022-12-09)"
   xml:space="preserve"
   xmlns:inkscape="http://www.inkscape.org/namespaces/inkscape"
   xmlns:sodipodi="http://sodipodi.sourceforge.net/DTD/sodipodi-0.dtd"
   xmlns="http://www.w3.org/2000/svg"
   xmlns:svg="http://www.w3.org/2000/svg"><defs
     id="defs12" /><sodipodi:namedview
     id="namedview10"
     pagecolor="#ffffff"
     bordercolor="#000000"
     borderopacity="0.25"
     inkscape:showpageshadow="2"
     inkscape:pageopacity="0.0"
     inkscape:pagecheckerboard="0"
     inkscape:deskcolor="#d1d1d1"
     showgrid="false"
     inkscape:zoom="2.6700352"
     inkscape:cx="4.3070593"
     inkscape:cy="56.366298"
     inkscape:window-width="1280"
     inkscape:window-height="730"
     inkscape:window-x="-6"
     inkscape:window-y="-6"
     inkscape:window-maximized="1"
     inkscape:current-layer="svg8" /><path
     d="m 31.162766,73.82434 -3.848383,-7.586056 -14.608959,0.801893 1.650549,3.301471 z M 26.826474,46.10146 4.9751141,48.637019 v 2.727532 L 26.826474,53.90011 v -3.899325 z m 4.336292,-19.924229 -3.848383,7.586056 -14.608959,-0.801892 1.650549,-3.301471 z m 15.001682,-2.862898 c -5.409475,-0.01942 -8.844225,0.70843 -8.844225,0.70843 -3.049868,0.526177 -5.948788,12.820405 -5.948788,25.97868 0,13.157838 2.89892,25.452132 5.948788,25.978682 0,0 35.168666,7.45354 57.68219,-25.978682 C 79.5248,27.017518 58.065075,23.357993 46.163577,23.314114 Z m -0.448049,5.46318 c 8.050501,0.04946 26.037795,2.159953 41.130306,18.24914 C 67.305072,32.138879 40.318904,34.483564 40.318904,34.483564 c 0,0 1.017879,-5.314649 1.133997,-5.509692 0,0 1.57941,-0.21277 4.262888,-0.196282 z"
     stroke="#000000"
     stroke-width="0.218605px"
     id="path124"
     style="display:none" /><path
     style="fill:#000000;stroke-width:0.0711528"
     d="M 20.969617,87.212965 V 83.2284 h 2.460421 2.46042 l -0.0171,-3.895624 c -0.01823,-4.151186 0.0066,-4.589665 0.36699,-6.475837 1.001257,-5.240536 3.598424,-10.429276 7.647818,-15.279156 1.866564,-2.235545 3.862887,-4.201933 6.559562,-6.461202 0.840389,-0.704075 1.085082,-0.947241 1.085082,-1.078311 0,-0.1288 -0.18275,-0.319157 -0.764894,-0.796731 -4.492275,-3.685331 -8.06978,-7.71062 -10.591243,-11.916908 -0.755327,-1.260031 -1.947841,-3.675586 -2.471429,-5.006122 -0.845605,-2.148844 -1.467435,-4.62016 -1.763483,-7.008559 -0.05713,-0.460901 -0.07862,-1.926648 -0.06753,-4.607149 l 0.01626,-3.931196 H 23.430053 20.969618 V 12.787043 8.80248 H 49.999995 79.03037 v 3.984563 3.984562 h -2.561504 -2.561504 v 3.79914 c 0,2.113162 -0.03288,4.12614 -0.07408,4.535996 -0.682197,6.786654 -4.254635,13.753233 -10.20752,19.905593 -1.158968,1.197801 -2.671934,2.594456 -4.135008,3.817116 -0.669754,0.559702 -1.238144,1.070806 -1.263077,1.135786 -0.02494,0.06498 -0.02127,0.15826 0.0082,0.207286 0.02941,0.04903 0.57974,0.527263 1.222946,1.062748 7.228302,6.017722 11.989361,12.991685 13.729305,20.110595 0.644902,2.638578 0.719284,3.478182 0.719284,8.118971 V 83.2284 h 2.561504 2.561504 v 3.984565 3.984555 H 49.999994 20.969617 Z m 49.611348,-7.168656 c 0.02585,-3.697027 0.0044,-4.441836 -0.161275,-5.57969 -0.64446,-4.428115 -2.563411,-8.790101 -5.738664,-13.044581 -2.113739,-2.832169 -4.593352,-5.376852 -7.779202,-7.983346 -1.48903,-1.218245 -1.90129,-1.877328 -1.97381,-3.155542 -0.0426,-0.75092 0.06093,-1.275421 0.375226,-1.900772 0.288439,-0.573928 0.60573,-0.914216 1.638009,-1.75672 1.490454,-1.216453 2.424492,-2.06665 3.909559,-3.558622 2.912224,-2.925768 5.176806,-5.957894 6.803924,-9.11001 1.513543,-2.932077 2.337864,-5.420109 2.781721,-8.396041 0.137148,-0.919521 0.147374,-1.264305 0.132859,-4.482631 -0.0086,-1.91757 -0.03923,-3.51056 -0.06797,-3.539978 -0.02874,-0.02941 -9.320038,-0.04542 -20.647329,-0.03558 l -20.595081,0.01791 -0.05018,3.166304 c -0.05646,3.562102 -0.0013,4.498384 0.370406,6.285713 0.986393,4.7432 3.379452,9.339377 7.192947,13.814976 1.114578,1.308093 3.857249,3.999231 5.294351,5.194876 1.613892,1.342731 2.152515,1.879985 2.401169,2.395071 0.523442,1.084306 0.541962,2.155766 0.05575,3.225292 -0.276297,0.607774 -0.628583,0.996912 -1.677548,1.853034 -7.221056,5.893501 -11.874675,12.789374 -13.258656,19.647075 -0.408578,2.024526 -0.417128,2.182473 -0.381598,7.049984 l 0.01778,2.436989 H 49.893265 70.563177 Z M 33.777137,79.063154 c 0,-2.441907 0.865073,-5.449019 2.216288,-7.704139 1.001373,-1.671245 2.713769,-3.585685 4.187471,-4.681546 4.948465,-3.679735 11.331699,-4.285796 16.827657,-1.597711 4.594784,2.247321 7.893723,6.585719 8.789153,11.558516 0.161773,0.898434 0.324399,2.679237 0.259993,2.847075 -0.04007,0.104432 -1.428772,0.114248 -16.162201,0.114248 H 33.777137 Z M 50.18802,47.934393 c -0.295021,-0.08817 -0.460739,-0.263606 -0.703655,-0.74493 -0.585551,-1.160235 -1.565706,-2.569029 -2.555176,-3.672601 -0.588621,-0.656497 -0.854819,-0.89399 -2.896679,-2.584307 -3.177473,-2.630417 -6.235436,-5.669065 -8.203363,-8.151552 -0.294714,-0.371774 -0.58846,-0.719604 -0.652768,-0.772956 -0.06431,-0.05335 -0.09938,-0.125394 -0.07793,-0.160094 0.02248,-0.03637 6.544533,-0.06309 15.399617,-0.06309 8.855083,0 15.37714,0.02672 15.399618,0.06309 0.02145,0.0347 -0.01363,0.106742 -0.07793,0.160094 -0.06431,0.05335 -0.358057,0.401182 -0.652772,0.772956 -1.967924,2.482487 -5.025884,5.521135 -8.203358,8.151552 -2.061021,1.706176 -2.321078,1.939242 -2.941879,2.636514 -0.972312,1.092074 -1.844923,2.354961 -2.571471,3.721566 -0.112805,0.212181 -0.285148,0.441384 -0.382982,0.509341 -0.222274,0.154391 -0.612712,0.214078 -0.879268,0.134417 z"
     id="path215" /></svg>
