<?xml version="1.0" encoding="UTF-8" standalone="no"?>
<svg
   viewBox="0 0 100 100"
   x="0px"
   y="0px"
   version="1.1"
   id="svg8"
   sodipodi:docname="noun-computer-monitor-5016579.svg"
   width="100"
   height="100"
   inkscape:version="1.2.2 (732a01da63, 2022-12-09)"
   xmlns:inkscape="http://www.inkscape.org/namespaces/inkscape"
   xmlns:sodipodi="http://sodipodi.sourceforge.net/DTD/sodipodi-0.dtd"
   xmlns="http://www.w3.org/2000/svg"
   xmlns:svg="http://www.w3.org/2000/svg">
  <defs
     id="defs12" />
  <sodipodi:namedview
     id="namedview10"
     pagecolor="#ffffff"
     bordercolor="#000000"
     borderopacity="0.25"
     inkscape:showpageshadow="2"
     inkscape:pageopacity="0.0"
     inkscape:pagecheckerboard="0"
     inkscape:deskcolor="#d1d1d1"
     showgrid="false"
     inkscape:zoom="2.6700352"
     inkscape:cx="50.373868"
     inkscape:cy="62.733255"
     inkscape:window-width="1280"
     inkscape:window-height="730"
     inkscape:window-x="-6"
     inkscape:window-y="-6"
     inkscape:window-maximized="1"
     inkscape:current-layer="svg8" />
  <path
     d="M 89.25,70.2 H 10.75 V 18.43 h 78.5 z m 0,-56.52 H 10.75 C 8.13,13.68 6,15.81 6,18.43 V 70.2 c 0,2.62 2.13,4.75 4.75,4.75 h 29.5 v 3.83 l -13.56,5.47 c -0.91,0.37 -0.7,2.08 0.25,2.08 h 46.13 c 0.95,0 1.16,-1.71 0.25,-2.08 L 59.76,78.78 v -3.83 h 29.5 c 2.62,0 4.75,-2.13 4.75,-4.75 V 18.43 c 0,-2.62 -2.13,-4.75 -4.75,-4.75 v 0 z"
     id="path2" />
</svg>
