<?xml version="1.0" encoding="UTF-8" standalone="no"?>
<svg
   viewBox="0 0 100 100"
   x="0px"
   y="0px"
   version="1.1"
   id="svg8"
   sodipodi:docname="check_x.svg"
   width="100"
   height="100"
   inkscape:version="1.2.2 (732a01da63, 2022-12-09)"
   xml:space="preserve"
   xmlns:inkscape="http://www.inkscape.org/namespaces/inkscape"
   xmlns:sodipodi="http://sodipodi.sourceforge.net/DTD/sodipodi-0.dtd"
   xmlns="http://www.w3.org/2000/svg"
   xmlns:svg="http://www.w3.org/2000/svg"><defs
     id="defs12" /><sodipodi:namedview
     id="namedview10"
     pagecolor="#ffffff"
     bordercolor="#000000"
     borderopacity="0.25"
     inkscape:showpageshadow="2"
     inkscape:pageopacity="0.0"
     inkscape:pagecheckerboard="0"
     inkscape:deskcolor="#d1d1d1"
     showgrid="false"
     inkscape:zoom="1.3350176"
     inkscape:cx="-164.41731"
     inkscape:cy="147.18907"
     inkscape:window-width="1280"
     inkscape:window-height="730"
     inkscape:window-x="-6"
     inkscape:window-y="-6"
     inkscape:window-maximized="1"
     inkscape:current-layer="svg8" /><text
     xml:space="preserve"
     style="font-size:165.932px;display:none;fill:#0075ff;fill-opacity:1;stroke-width:13.8276"
     x="7.987186"
     y="88.728271"
     id="text110"><tspan
       sodipodi:role="line"
       id="tspan108"
       x="7.987186"
       y="88.728271"
       style="font-style:normal;font-variant:normal;font-weight:normal;font-stretch:normal;font-family:'Adobe Arabic';-inkscape-font-specification:'Adobe Arabic';fill:#0075ff;fill-opacity:1;stroke-width:13.8276">!</tspan></text><path
     style="display:none;fill:#2ad52a;fill-opacity:1;stroke-width:0.0598781"
     d="M 31.409997,84.191231 C 31.059002,84.06375 30.671151,83.794083 30.491157,83.552374 30.412127,83.446246 30.057628,82.847453 29.703381,82.221728 21.970561,68.562761 16.495003,61.225083 8.6380169,53.992477 8.1212114,53.516739 7.6335107,53.029494 7.5542394,52.909707 7.2131008,52.39421 7.1336444,51.709429 7.3127092,50.828129 c 0.3003571,-1.478244 1.408599,-2.607033 2.9208008,-2.974952 1.975324,-0.480597 4.739685,0.01218 8.811343,1.570719 2.634554,1.008446 6.67928,2.88784 10.128702,4.706329 l 0.967357,0.509978 1.277052,-1.503237 C 37.413789,46.079187 45.399105,37.442588 51.396895,31.528553 61.361007,21.703579 68.144067,16.6209 72.357921,15.822044 c 0.719351,-0.136374 1.844675,-0.125722 2.426038,0.02297 0.597792,0.15289 1.352903,0.548435 1.708848,0.895138 0.971443,0.946215 1.039537,2.369152 0.176838,3.695237 -0.622116,0.956271 -1.501173,1.862521 -6.129652,6.31928 -7.539353,7.259636 -13.694965,14.596523 -19.458636,23.19279 -6.255662,9.330047 -11.700011,19.701354 -16.439251,31.316225 -0.403132,0.987988 -0.781165,1.890651 -0.840074,2.005915 -0.155478,0.304217 -0.580601,0.692695 -0.925345,0.845586 -0.396056,0.175641 -1.09298,0.211784 -1.46669,0.07605 z"
     id="path177" /><text
     xml:space="preserve"
     style="font-size:115.378px;display:inline;fill:#ff2a2a;fill-opacity:1;stroke-width:9.61475"
     x="8.3328819"
     y="90.394226"
     id="text864"
     transform="scale(1.0788849,0.92688293)"><tspan
       sodipodi:role="line"
       id="tspan862"
       x="8.3328819"
       y="90.394226"
       style="font-style:normal;font-variant:normal;font-weight:normal;font-stretch:normal;font-family:Calibri;-inkscape-font-specification:Calibri;fill:#ff2a2a;fill-opacity:1;stroke-width:9.61475">X</tspan></text></svg>
